<svg id="Layer_2" data-name="Layer 2" xmlns="http://www.w3.org/2000/svg" viewBox="0 0 227.8 64.9"><defs><style>.cls-1{fill:#ff9b00;}.cls-2{fill:#001e6c;}.cls-3{fill:orange;}</style></defs><path class="cls-1" d="M1149.9,105a8.1,8.1,0,0,0-5.9,2.4,7.8,7.8,0,0,0-2.5,5.9,6.8,6.8,0,0,0,3.8,6.3,75.5,75.5,0,0,0,9.8,3.3c4.6,1.4,7.9,3,10.1,5s4.8,6.9,4.8,12.2a17.5,17.5,0,0,1-5.5,13,17.9,17.9,0,0,1-12.9,5.3h-15.4a4.8,4.8,0,0,1-4.9-4.9v-.2a4.4,4.4,0,0,1,1.4-3.4,4.7,4.7,0,0,1,3.5-1.5H1152a8.2,8.2,0,0,0,8.3-8.3,7.2,7.2,0,0,0-3.7-6.4c-1.2-.7-4.5-1.8-9.8-3.5s-8-3.2-10.1-5.2-4.8-6.7-4.8-11.7a17.8,17.8,0,0,1,5.4-13,17.6,17.6,0,0,1,13-5.3h10.9a4.7,4.7,0,0,1,3.5,1.4,5,5,0,0,1,1.4,3.5v.2a4.8,4.8,0,0,1-1.4,3.4,4.9,4.9,0,0,1-3.5,1.5Z" transform="translate(-1131.3 -93.6)"/><path class="cls-1" d="M1183.5,95.2a4.8,4.8,0,0,1,3.4,1.4,4.7,4.7,0,0,1,1.5,3.5v53.4a4.5,4.5,0,0,1-1.5,3.5,4.4,4.4,0,0,1-3.4,1.4h-.1a4.6,4.6,0,0,1-3.5-1.4,4.5,4.5,0,0,1-1.4-3.5V100.1a4.6,4.6,0,0,1,1.4-3.5,5,5,0,0,1,3.5-1.4Z" transform="translate(-1131.3 -93.6)"/><path class="cls-1" d="M1237.9,118.6a22.4,22.4,0,0,1,6.8,16.5v18.4a4.5,4.5,0,0,1-1.4,3.5,4.6,4.6,0,0,1-3.5,1.4h-.1a4.4,4.4,0,0,1-3.4-1.4,4.5,4.5,0,0,1-1.5-3.5c-3.1,3.3-7.5,4.9-13.4,4.9a22.4,22.4,0,0,1-16.5-6.8,23.3,23.3,0,0,1,33-33Zm-26,7a13.1,13.1,0,0,0-3.9,9.5,13.4,13.4,0,1,0,26.8,0,13.1,13.1,0,0,0-3.9-9.5,13.5,13.5,0,0,0-19,0Z" transform="translate(-1131.3 -93.6)"/><path class="cls-1" d="M1257.9,95.2a4.9,4.9,0,0,1,3.4,1.4,4.7,4.7,0,0,1,1.5,3.5v11.7h6a4.9,4.9,0,0,1,3.5,1.5,4.8,4.8,0,0,1,1.4,3.4h0a5,5,0,0,1-1.4,3.5,5.2,5.2,0,0,1-3.5,1.4h-6v24a2.4,2.4,0,0,0,.8,2,2.8,2.8,0,0,0,2,.8h3.2a5,5,0,0,1,4.9,5h0a4.8,4.8,0,0,1-1.4,3.5,4.7,4.7,0,0,1-3.5,1.4h-3.2a12.8,12.8,0,0,1-12.8-12.7V100.1a4.7,4.7,0,0,1,1.5-3.5,4.9,4.9,0,0,1,3.4-1.4Z" transform="translate(-1131.3 -93.6)"/><path class="cls-2" d="M1322.7,125.4a5.4,5.4,0,0,1,.5,2.1,3.8,3.8,0,0,1-.4,1.7,4.3,4.3,0,0,1-2.6,2.7l-14.9,6.7-13.4,6.2c2.1,2.5,5.3,3.8,9.6,3.8a13.3,13.3,0,0,0,7.9-2.5,13.6,13.6,0,0,0,4.8-6.5,4.6,4.6,0,0,1,4.7-3.3,4.8,4.8,0,0,1,4,2.1,4.8,4.8,0,0,1,.9,2.7,4.7,4.7,0,0,1-.3,1.7,23.4,23.4,0,0,1-22,15.6,22.4,22.4,0,0,1-16.5-6.8,23.3,23.3,0,0,1,29.2-36A23.7,23.7,0,0,1,1322.7,125.4Zm-21.2-3.6a13.3,13.3,0,0,0-13.4,13.4v.3l22.6-10.1C1308.7,123,1305.7,121.8,1301.5,121.8Z" transform="translate(-1131.3 -93.6)"/><path class="cls-3" d="M1343.6,121.7a4.1,4.1,0,0,0-4.2,4.2,4,4,0,0,0,2.4,3.7,68.1,68.1,0,0,0,6.7,2,16.7,16.7,0,0,1,7.2,3.6c2.2,2.1,3.4,5.2,3.4,9.1a13.6,13.6,0,0,1-4.2,10,13.4,13.4,0,0,1-10,4.1h-10.5a4.6,4.6,0,0,1-3.5-1.4,4.8,4.8,0,0,1-1.4-3.5h0a4.8,4.8,0,0,1,1.4-3.5,4.7,4.7,0,0,1,3.5-1.5h10.9a4.1,4.1,0,0,0,3-1.2,3.8,3.8,0,0,0,1.3-3,3.7,3.7,0,0,0-2.4-3.4l-6.8-2a16.3,16.3,0,0,1-7.1-3.7c-2.3-2.2-3.4-5.3-3.4-9.3a13.5,13.5,0,0,1,4.1-9.9,13.8,13.8,0,0,1,10-4.2h7.5a4.9,4.9,0,0,1,3.5,1.5,4.4,4.4,0,0,1,1.4,3.4h0a4.6,4.6,0,0,1-1.4,3.5,5.2,5.2,0,0,1-3.5,1.4Z" transform="translate(-1131.3 -93.6)"/><path class="cls-2" d="M1279.6,102.8l6.7,5.1-.4,5.4s15.2-11,29.5,0V108l7.2-5.2-21.5-9.2Z" transform="translate(-1131.3 -93.6)"/></svg>